<svg width="36" height="28" viewBox="0 0 36 28" fill="none" xmlns="http://www.w3.org/2000/svg">
<path d="M29.6168 2.88325C27.4001 1.84991 25.0001 1.09991 22.5001 0.666581C22.4782 0.66588 22.4564 0.669993 22.4362 0.678632C22.4161 0.687271 22.3981 0.700225 22.3834 0.716581C22.0834 1.26658 21.7334 1.98325 21.5001 2.53325C18.8484 2.13325 16.1518 2.13325 13.5001 2.53325C13.2668 1.96658 12.9168 1.26658 12.6001 0.716581C12.5834 0.683248 12.5334 0.666581 12.4834 0.666581C9.98345 1.09991 7.60011 1.84991 5.36678 2.88325C5.35011 2.88325 5.33345 2.89991 5.31678 2.91658C0.783448 9.69991 -0.466553 16.2999 0.150114 22.8332C0.150114 22.8666 0.166781 22.8999 0.200114 22.9166C3.20011 25.1166 6.08345 26.4499 8.93345 27.3332C8.98345 27.3499 9.03345 27.3332 9.05011 27.2999C9.71678 26.3832 10.3168 25.4166 10.8334 24.3999C10.8668 24.3332 10.8334 24.2666 10.7668 24.2499C9.81678 23.8832 8.91678 23.4499 8.03345 22.9499C7.96678 22.9166 7.96678 22.8166 8.01678 22.7666C8.20011 22.6332 8.38345 22.4832 8.56678 22.3499C8.60011 22.3166 8.65011 22.3166 8.68345 22.3332C14.4168 24.9499 20.6001 24.9499 26.2668 22.3332C26.3001 22.3166 26.3501 22.3166 26.3834 22.3499C26.5668 22.4999 26.7501 22.6332 26.9334 22.7832C27.0001 22.8332 27.0001 22.9332 26.9168 22.9666C26.0501 23.4832 25.1334 23.8999 24.1834 24.2666C24.1168 24.2832 24.1001 24.3666 24.1168 24.4166C24.6501 25.4332 25.2501 26.3999 25.9001 27.3166C25.9501 27.3332 26.0001 27.3499 26.0501 27.3332C28.9168 26.4499 31.8001 25.1166 34.8001 22.9166C34.8334 22.8999 34.8501 22.8666 34.8501 22.8332C35.5834 15.2832 33.6334 8.73325 29.6834 2.91658C29.6668 2.89991 29.6501 2.88325 29.6168 2.88325ZM11.7001 18.8499C9.98345 18.8499 8.55011 17.2666 8.55011 15.3166C8.55011 13.3666 9.95012 11.7832 11.7001 11.7832C13.4668 11.7832 14.8668 13.3832 14.8501 15.3166C14.8501 17.2666 13.4501 18.8499 11.7001 18.8499ZM23.3168 18.8499C21.6001 18.8499 20.1668 17.2666 20.1668 15.3166C20.1668 13.3666 21.5668 11.7832 23.3168 11.7832C25.0834 11.7832 26.4834 13.3832 26.4668 15.3166C26.4668 17.2666 25.0834 18.8499 23.3168 18.8499Z" fill="#202020"/>
</svg>
