<svg width="35" height="29" viewBox="0 0 35 29" fill="none" xmlns="http://www.w3.org/2000/svg">
<path d="M34.9333 3.99984C33.65 4.58317 32.2667 4.9665 30.8333 5.14984C32.3 4.2665 33.4333 2.8665 33.9667 1.18317C32.5833 2.0165 31.05 2.59984 29.4333 2.93317C28.1166 1.49984 26.2667 0.666504 24.1667 0.666504C20.25 0.666504 17.05 3.8665 17.05 7.8165C17.05 8.38317 17.1167 8.93317 17.2333 9.44984C11.3 9.14984 6.01665 6.29984 2.49998 1.98317C1.88332 3.03317 1.53332 4.2665 1.53332 5.5665C1.53332 8.04984 2.78332 10.2498 4.71665 11.4998C3.53332 11.4998 2.43332 11.1665 1.46665 10.6665V10.7165C1.46665 14.1832 3.93332 17.0832 7.19998 17.7332C6.1512 18.0202 5.05014 18.0601 3.98332 17.8498C4.436 19.2706 5.32255 20.5139 6.51834 21.4047C7.71414 22.2956 9.15906 22.7893 10.65 22.8165C8.1227 24.8172 4.98998 25.8987 1.76665 25.8832C1.19998 25.8832 0.633317 25.8498 0.0666504 25.7832C3.23332 27.8165 6.99998 28.9998 11.0333 28.9998C24.1667 28.9998 31.3833 18.0998 31.3833 8.64984C31.3833 8.33317 31.3833 8.03317 31.3666 7.7165C32.7667 6.7165 33.9666 5.44984 34.9333 3.99984Z" fill="#202020"/>
</svg>
